HIERARCHY
ROOT reference
{
	OFFSET 14.961813 0.000000 88.146797
	CHANNELS 6 Xposition Yposition Zposition Xrotation Yrotation Zrotation
	JOINT root
	{
		OFFSET 1.340508 87.682404 -0.922951
		CHANNELS 3 Xrotation Yrotation Zrotation
		JOINT Hips
		{
			OFFSET 0.000000 0.000000 0.000000
			CHANNELS 3 Xrotation Yrotation Zrotation
			JOINT Spine
			{
				OFFSET 0.022438 -0.105400 0.012428
				CHANNELS 3 Xrotation Yrotation Zrotation
				JOINT Spine1
				{
					OFFSET -5.776710 16.961205 -4.842392
					CHANNELS 3 Xrotation Yrotation Zrotation
					JOINT Spine2
					{
						OFFSET -6.195212 16.115295 -6.818909
						CHANNELS 3 Xrotation Yrotation Zrotation
						JOINT Neck
						{
							OFFSET -8.894081 13.577805 -9.002388
							CHANNELS 3 Xrotation Yrotation Zrotation
							JOINT Head
							{
								OFFSET -5.687680 7.200317 -6.985439
								CHANNELS 3 Xrotation Yrotation Zrotation
								End Site
								{
									OFFSET 0.000000 0.100006 0.000000
								}
							}
						}
						JOINT RightShoulder
						{
							OFFSET -7.140662 12.690704 -12.069099
							CHANNELS 3 Xrotation Yrotation Zrotation
							JOINT RightArm
							{
								OFFSET 6.468368 -6.459282 -13.230400
								CHANNELS 3 Xrotation Yrotation Zrotation
								JOINT RightForearm
								{
									OFFSET -3.230484 -13.450996 -25.948000
									CHANNELS 3 Xrotation Yrotation Zrotation
									JOINT RightHand
									{
										OFFSET -14.462502 -2.094818 -20.195297
										CHANNELS 3 Xrotation Yrotation Zrotation
										End Site
										{
											OFFSET 0.000000 0.099998 0.000000
										}
									}
								}
							}
						}
						JOINT LeftShoulder
						{
							OFFSET -10.656801 14.450806 -5.942657
							CHANNELS 3 Xrotation Yrotation Zrotation
							JOINT LeftArm
							{
								OFFSET -6.973288 3.715912 14.006096
								CHANNELS 3 Xrotation Yrotation Zrotation
								JOINT LeftForearm
								{
									OFFSET 7.161782 -11.949501 25.895599
									CHANNELS 3 Xrotation Yrotation Zrotation
									JOINT LeftHand
									{
										OFFSET -12.904401 -19.593300 -8.424828
										CHANNELS 3 Xrotation Yrotation Zrotation
										End Site
										{
											OFFSET 0.000000 0.099998 0.000000
										}
									}
								}
							}
						}
					}
				}
			}
			JOINT RightUpLeg
			{
				OFFSET 4.542200 -0.222000 -8.407043
				CHANNELS 3 Xrotation Yrotation Zrotation
				JOINT RightLeg
				{
					OFFSET -10.034202 -37.996601 -21.972099
					CHANNELS 3 Xrotation Yrotation Zrotation
					JOINT RightFoot
					{
						OFFSET 2.891760 -41.000999 2.475040
						CHANNELS 3 Xrotation Yrotation Zrotation
						JOINT RightToe
						{
							OFFSET -4.983984 -7.346300 -15.662998
							CHANNELS 3 Xrotation Yrotation Zrotation
							End Site
							{
								OFFSET 0.000000 0.100000 0.000000
							}
						}
					}
				}
			}
			JOINT LeftUpLeg
			{
				OFFSET -4.542196 0.222008 8.407021
				CHANNELS 3 Xrotation Yrotation Zrotation
				JOINT LeftLeg
				{
					OFFSET -10.129198 -41.627899 13.846199
					CHANNELS 3 Xrotation Yrotation Zrotation
					JOINT LeftFoot
					{
						OFFSET 9.910692 -37.453999 13.948097
						CHANNELS 3 Xrotation Yrotation Zrotation
						JOINT LeftToe
						{
							OFFSET -16.055000 -8.146780 -0.070290
							CHANNELS 3 Xrotation Yrotation Zrotation
							End Site
							{
								OFFSET 0.000000 0.100000 0.000000
							}
						}
					}
				}
			}
		}
	}
}
MOTION
Frames: 15
Frame Time: 0.041667
-0.000002 -0.000000 0.000015 0.000000 0.000000 0.000000 -0.000001 0.000001 -0.000001 0.000007 -0.000004 0.000003 0.000002 -0.000005 0.000002 -0.000001 -0.000005 0.000005 -0.000000 0.000003 0.011905 -0.000004 0.000000 0.000001 0.000003 0.000001 0.000001 -0.000004 -0.000002 -0.000002 0.000000 0.000003 0.000002 -0.000006 -0.000013 -0.000004 0.000001 0.000002 -0.000005 0.000010 -0.000012 -0.000014 0.000008 0.000000 -0.000002 0.000008 -0.000004 -0.000003 -0.000002 -0.000006 0.000006 -0.000007 -0.000003 0.000001 0.000001 0.000000 -0.000000 0.000001 -0.000004 -0.000000 0.000001 0.000006 0.000000 -0.000006 -0.000008 0.000012 0.000004 -0.000003 0.000008 0.000003 -0.000001 -0.000006 -0.000001 0.000000 -0.000003 
-0.000002 -0.000000 0.000015 0.000000 0.000000 0.000000 -0.000001 0.000001 -0.000001 0.000007 -0.000004 0.000003 0.000002 -0.000005 0.000002 -0.000001 -0.000005 0.000005 -0.000000 0.000003 0.011905 -0.000004 0.000000 0.000001 0.000003 0.000001 0.000001 -0.000004 -0.000002 -0.000002 0.000000 0.000003 0.000002 -0.000006 -0.000013 -0.000004 0.000001 0.000002 -0.000005 0.000010 -0.000012 -0.000014 0.000008 0.000000 -0.000002 0.000008 -0.000004 -0.000003 -0.000002 -0.000006 0.000006 -0.000007 -0.000003 0.000001 0.000001 0.000000 -0.000000 0.000001 -0.000004 -0.000000 0.000001 0.000006 0.000000 -0.000006 -0.000008 0.000012 0.000004 -0.000003 0.000008 0.000003 -0.000001 -0.000006 -0.000001 0.000000 -0.000003 
0.078695 -0.000000 1.703201 0.000000 0.000000 0.000000 -0.102670 0.066384 -0.116548 0.155588 0.050943 0.082670 0.063271 0.045771 0.046572 0.056823 0.148266 0.032081 0.028784 0.106198 0.011857 -0.048196 -0.152792 0.063559 -0.098524 -0.301808 0.025760 -0.342435 -0.073176 -0.113590 0.092374 -0.387550 0.045329 0.058227 0.083010 -0.050339 0.045110 -0.012762 0.058287 -0.100122 -0.144569 -0.008860 0.026398 -0.045967 -0.058027 -0.107702 0.048445 0.052185 0.039315 -0.023352 0.017402 0.394270 -0.662958 0.572957 2.750523 0.072331 -1.442642 -3.862707 0.189784 0.216505 -0.000001 0.000003 -0.000003 1.758357 -1.525361 -1.809063 -0.394867 1.503186 4.320020 -3.438341 -0.430956 -2.474689 1.885116 0.054977 0.737724 
0.068827 -0.000000 3.214142 0.000000 0.000000 0.000000 -0.130404 -0.113657 -0.419201 0.237991 0.077909 0.126416 0.138485 0.143150 0.096220 0.133686 0.340028 0.066917 0.068504 0.243127 0.011618 -0.113953 -0.207697 0.215512 -0.304573 -0.456752 0.215727 -0.586560 -0.197129 -0.166612 0.119346 -0.470062 0.171897 -0.001276 -0.001829 0.001111 0.038870 -0.063922 0.038454 -0.240020 -0.284612 -0.040897 0.035014 0.026662 0.108623 -0.198866 0.089359 0.096432 0.092092 -0.038122 0.038665 0.550094 -1.281621 1.557892 6.011326 0.068290 -3.154421 -7.980340 0.464582 -0.196109 -0.000000 0.000004 0.000000 3.551800 -2.488876 -3.037927 -0.833773 2.793251 8.119155 -6.709408 -0.455265 -4.804931 3.545522 0.107413 1.159530 
0.249641 -0.000000 4.765915 0.000000 0.000000 0.000000 -0.080700 -0.542873 -0.899660 0.262921 0.086092 0.139644 0.220787 0.268315 0.139580 0.224584 0.547219 0.094338 0.116711 0.390610 0.009743 -0.208333 -0.151380 0.434095 -0.623408 -0.434251 0.530275 -0.686196 -0.367441 -0.143095 0.029877 -0.188844 0.344607 -0.158807 -0.227188 0.137150 -0.010782 -0.147808 -0.047394 -0.436975 -0.400765 -0.110975 -0.006452 0.199340 0.538572 -0.233807 0.105014 0.113405 0.159919 -0.036812 0.065013 0.473636 -1.801434 2.904950 9.660988 -0.051766 -5.067572 -11.691198 0.888652 -1.206701 -0.000000 0.000005 0.000001 5.299084 -2.626841 -3.765852 -1.254945 3.821981 11.228489 -9.296974 -0.410573 -7.046543 4.514749 0.163252 1.434244 
0.364988 -0.000000 7.984344 0.000000 0.000000 0.000000 -0.061636 -1.545654 -1.978489 0.301857 0.098598 0.160307 0.396365 0.394833 0.246941 0.440125 0.793295 0.202777 0.247242 0.579863 0.057738 -0.439966 0.031736 0.637962 -1.184573 -0.180438 0.765921 -0.724800 -0.642994 -0.055687 -0.273570 0.548611 0.463800 -0.155507 -0.222444 0.134290 0.031770 -0.217273 0.016776 -0.977099 -0.628855 -0.329926 -0.086518 0.297016 1.543138 -0.122078 0.054888 0.059178 0.273691 -0.025530 0.150138 0.110136 -2.073254 5.846864 16.975149 -0.659256 -8.870641 -12.485479 2.105567 -3.624040 0.000001 0.000000 0.000001 8.934369 -2.783532 -4.590507 -2.104926 5.524152 16.577110 -12.299243 0.181850 -11.200487 1.499986 0.109898 1.341220 
0.361721 -0.000000 9.789169 0.000000 0.000000 0.000000 -0.123403 -1.914054 -2.453358 0.361847 0.118287 0.192125 0.438588 0.371368 0.305966 0.492042 0.805704 0.278472 0.281930 0.598666 0.107086 -0.526743 0.078341 0.651709 -1.347424 -0.102595 0.744689 -0.744068 -0.651436 -0.060521 -0.384270 0.609715 0.489838 0.062154 0.088586 -0.053741 0.270065 -0.168373 0.327252 -1.029183 -0.772572 -0.315389 0.026333 0.210673 1.726073 -0.207802 0.093358 0.100775 0.307620 -0.033024 0.175743 -0.130236 -2.175633 7.210644 20.794847 -1.170527 -10.827992 -11.042655 2.589130 -4.006219 -0.000001 0.000004 -0.000001 11.043972 -2.936404 -4.695326 -2.424877 6.074767 18.374746 -14.137632 0.883560 -12.792369 -5.085668 -0.132954 1.200599 
0.523743 -0.000000 11.408615 0.000000 0.000000 0.000000 -0.163327 -2.378514 -2.696263 0.462848 0.151857 0.245645 0.421874 0.356626 0.289538 0.457169 0.818168 0.247167 0.257381 0.601836 0.085219 -0.565239 0.144638 0.701559 -1.456126 -0.001054 0.824627 -0.642511 -0.522827 -0.066573 -0.585740 0.485556 0.683825 0.309910 0.439972 -0.268106 0.496861 -0.091092 0.604112 -0.904967 -0.734526 -0.260790 0.303548 -0.076747 1.716239 -0.480651 0.215270 0.233494 0.267820 -0.135426 0.156342 -0.590070 -2.023076 8.362302 24.949107 -1.876821 -12.924067 -7.984573 2.999671 -5.080797 -0.000001 0.000005 -0.000004 13.170165 -2.670949 -4.760879 -2.578850 6.326015 19.207960 -15.700769 1.483706 -13.782418 -5.365129 -0.145631 1.177700 
0.795254 -0.000000 13.062424 0.000000 0.000000 0.000000 -0.053628 -2.986192 -2.748402 0.537224 0.176347 0.285047 0.388454 0.404125 0.217993 0.394887 0.890998 0.132180 0.210125 0.635822 0.001574 -0.592923 0.244780 0.796921 -1.583210 0.145499 0.999508 -0.429256 -0.458855 -0.002245 -1.080246 0.378277 0.819986 0.531615 0.752078 -0.460256 0.662361 -0.049325 0.814100 -0.778255 -0.687592 -0.207344 0.295192 -0.281231 1.624140 -0.704359 0.314685 0.342672 0.293287 -0.104028 0.129505 -3.171249 -1.906456 10.411622 32.440072 -3.542120 -16.589599 -8.224487 3.060968 -5.778425 0.000000 0.000007 -0.000001 15.015175 -1.983388 -5.047804 -2.672013 6.474125 19.703091 -17.033028 1.829635 -14.418188 -4.932635 -0.134280 1.164097 
1.018629 -0.000000 15.072891 0.000000 0.000000 0.000000 0.175637 -3.751691 -2.651247 0.609252 0.199148 0.323198 0.347405 0.514007 0.103905 0.314192 1.037875 -0.052389 0.145248 0.711739 -0.135656 -0.599994 0.385486 0.917268 -1.699339 0.356650 1.244006 -0.168865 -0.474737 0.112751 -1.779184 0.362243 0.859252 0.683131 0.964066 -0.591751 0.758058 -0.054727 0.938221 -0.669157 -0.657553 -0.158024 -0.092453 -0.340052 1.472976 -0.823035 0.367204 0.400682 0.392531 0.072912 0.103280 -2.676016 -0.836653 10.744154 32.437255 -3.541385 -16.588245 -6.925676 3.298590 -8.405253 -0.000010 0.000007 0.000001 16.556220 -1.099664 -5.564897 -2.734926 6.572511 20.033766 -18.209547 2.078533 -14.777165 -4.841383 -0.127560 1.142941 
1.633373 -0.000000 18.556290 0.000000 0.000000 0.000000 0.627264 -5.571843 -2.338205 0.829732 0.272990 0.439759 0.215963 0.771059 -0.098304 0.070455 1.407992 -0.398897 -0.045301 0.911365 -0.401438 -0.446237 0.775777 0.927305 -1.514557 1.066086 1.495507 -0.056028 -0.386230 0.126192 -2.382666 0.977872 0.732557 0.550895 0.779091 -0.476979 0.837970 -0.107363 0.901431 -0.266699 -0.524180 0.017620 -1.470740 0.003039 0.834598 -0.932965 0.415724 0.454517 0.525526 0.367569 0.043992 -0.268309 0.716638 9.452842 24.870071 -1.861914 -12.884497 -7.364112 3.352189 -10.199295 -0.000005 0.000007 0.000006 19.320343 -0.350920 -6.469699 -2.768224 6.624074 20.207653 -21.079956 3.690513 -14.768172 -4.631018 -0.116731 1.093767 
1.950630 -0.000000 20.617508 0.000000 0.000000 0.000000 0.902353 -6.268613 -2.209631 0.836814 0.275343 0.443499 0.148018 0.798374 -0.076426 -0.027723 1.442178 -0.371993 -0.113773 0.930417 -0.385729 -0.498314 0.964939 0.809355 -1.558158 1.450835 1.323728 0.151019 -0.382502 0.212149 -2.763356 1.878576 0.467702 0.373640 0.529902 -0.323295 0.816006 -0.113038 0.785210 -0.092893 -0.504334 0.105197 -1.941856 0.529120 0.312373 -1.150504 0.511369 0.561232 0.564542 0.519251 0.016634 2.266324 0.737317 7.481016 16.632781 -0.619915 -8.694091 -5.892214 3.177554 -11.150231 -0.000002 0.000006 0.000000 20.588115 -0.420427 -6.684578 -2.713527 6.539188 19.921642 -22.498150 4.705984 -14.255768 -4.512796 -0.112653 1.065973 
2.372671 -0.000000 22.330109 0.000000 0.000000 0.000000 1.139660 -6.599561 -2.090073 0.843761 0.277707 0.447188 0.095025 0.750118 -0.033914 -0.095163 1.379052 -0.302786 -0.154978 0.890259 -0.332639 -0.576328 1.104903 0.693600 -1.637910 1.744445 1.122380 0.256568 -0.394424 0.261533 -3.221939 2.534858 0.144073 0.353559 0.501598 -0.305903 0.906255 -0.085156 0.869437 0.003170 -0.530005 0.165148 -2.165878 0.642296 -0.013019 -1.321221 0.586102 0.645154 0.632761 0.701511 0.039411 4.123792 0.700902 6.108352 8.591098 -0.003929 -4.507341 -4.796593 2.280335 -11.737196 -0.000003 0.000008 0.000001 21.697081 -0.428955 -6.842003 -2.607526 6.371911 19.361104 -23.491935 5.271352 -13.539796 -4.740798 -0.124366 1.022557 
2.801655 -0.000000 24.027206 0.000000 0.000000 0.000000 1.320492 -6.828069 -1.941278 0.850781 0.280073 0.450870 0.045265 0.726789 -0.013641 -0.161443 1.346040 -0.269033 -0.197510 0.866992 -0.306283 -0.625309 1.209259 0.602445 -1.678648 1.964998 0.970531 0.313054 -0.416638 0.294241 -3.425308 3.035676 0.017415 0.334137 0.474204 -0.289089 0.923847 -0.057739 0.888627 0.048863 -0.602328 0.211935 -2.189693 0.485466 -0.101234 -1.350944 0.599076 0.659805 0.647602 0.754567 0.061331 5.441972 0.364285 4.963707 0.826744 0.029013 -0.433352 -3.952964 1.072233 -11.911051 -0.000001 0.000005 0.000004 22.691929 -0.090189 -7.083764 -2.472779 6.153812 18.636016 -23.846369 5.357464 -12.841615 -2.723442 -0.034243 1.080726 
3.160603 -0.000000 25.994308 0.000000 0.000000 0.000000 1.432489 -7.025110 -1.768434 0.857751 0.282723 0.454550 0.005395 0.752425 -0.021423 -0.220663 1.375776 -0.283520 -0.239562 0.881709 -0.318371 -0.637919 1.277548 0.542234 -1.672609 2.109574 0.883428 0.318601 -0.437444 0.304665 -3.339074 3.368575 0.078516 0.278795 0.395988 -0.241160 0.851023 -0.047041 0.807521 0.057374 -0.708737 0.248804 -2.068470 0.160320 0.021932 -1.229539 0.546009 0.600067 0.608000 0.678572 0.071541 6.236101 -0.128493 4.034878 -6.613542 -0.457406 3.448853 -3.434609 -0.543846 -11.777362 -0.000000 0.000000 -0.000004 23.601078 0.649386 -7.451590 -2.321430 5.901132 17.803754 -23.519283 4.978690 -12.228226 0.669150 0.128418 1.149878 
